HIERARCHY
ROOT Hips
{
  OFFSET 0.000000 0.000000 0.000000
  CHANNELS 6 Xposition Yposition Zposition Xrotation Yrotation Zrotation
  JOINT Spine
  {
    OFFSET 1.029272 24.139234 -3.309675
    CHANNELS 3 Xrotation Yrotation Zrotation
    JOINT Chest
    {
      OFFSET 1.029272 24.139234 -3.309675
      CHANNELS 3 Xrotation Yrotation Zrotation
      JOINT Neck
      {
        OFFSET 0.000000 6.442996 0.000000
        CHANNELS 3 Xrotation Yrotation Zrotation
        JOINT Head
        {
          OFFSET 0.000000 7.107403 0.000000
          CHANNELS 3 Xrotation Yrotation Zrotation
          End Site
          {
            OFFSET 0.000000 2.132221 0.000000
          }
        }
      }
      JOINT LeftCollar
      {
        OFFSET 3.000000 4.000000 0.000000
        CHANNELS 3 Xrotation Yrotation Zrotation
        JOINT LeftShoulder
        {
          OFFSET 15.824782 -3.385161 -4.490161
          CHANNELS 3 Xrotation Yrotation Zrotation
          JOINT LeftArm
          {
            OFFSET 6.638871 -21.899489 2.577768
            CHANNELS 3 Xrotation Yrotation Zrotation
            JOINT LeftForeArm
            {
              OFFSET 1.662469 -23.769893 2.728891
              CHANNELS 3 Xrotation Yrotation Zrotation
              JOINT LeftHand
              {
                OFFSET -1.157011 -3.989585 -0.720753
                CHANNELS 3 Xrotation Yrotation Zrotation
                End Site
                {
                  OFFSET -0.347103 -1.196876 -0.216226
                }
              }
            }
          }
        }
      }
      JOINT RightCollar
      {
        OFFSET -3.000000 4.000000 0.000000
        CHANNELS 3 Xrotation Yrotation Zrotation
        JOINT RightShoulder
        {
          OFFSET -15.824782 3.385161 4.490161
          CHANNELS 3 Xrotation Yrotation Zrotation
          JOINT RightArm
          {
            OFFSET -4.830150 -29.706995 -0.659229
            CHANNELS 3 Xrotation Yrotation Zrotation
            JOINT RightForeArm
            {
              OFFSET -6.735460 -18.902062 -7.831287
              CHANNELS 3 Xrotation Yrotation Zrotation
              JOINT RightHand
              {
                OFFSET 1.562441 -2.563879 -3.933201
                CHANNELS 3 Xrotation Yrotation Zrotation
                End Site
                {
                  OFFSET 0.468732 -0.769164 -1.179960
                }
              }
            }
          }
        }
      }
    }
  }
  JOINT LeftUpLeg
  {
    OFFSET 8.875314 -0.675327 -0.291526
    CHANNELS 3 Xrotation Yrotation Zrotation
    JOINT LeftLeg
    {
      OFFSET -2.390302 -38.516964 -5.036820
      CHANNELS 3 Xrotation Yrotation Zrotation
      JOINT LeftFoot
      {
        OFFSET -8.730226 -38.998584 -0.067483
        CHANNELS 3 Xrotation Yrotation Zrotation
        End Site
        {
          OFFSET -2.619068 -11.699575 -0.020245
        }
      }
    }
  }
  JOINT RightUpLeg
  {
    OFFSET -8.875314 0.675327 0.291526
    CHANNELS 3 Xrotation Yrotation Zrotation
    JOINT RightLeg
    {
      OFFSET 8.015065 -34.486904 0.724164
      CHANNELS 3 Xrotation Yrotation Zrotation
      JOINT RightFoot
      {
        OFFSET 4.389306 -41.028927 12.321156
        CHANNELS 3 Xrotation Yrotation Zrotation
        End Site
        {
          OFFSET 1.316792 -12.308678 3.696347
        }
      }
    }
  }
}
MOTION
Frames: 15
Frame Time: 0.083333
0.118654 0.118983 0.081677 1.667454 -0.431108 -2.946555 0.000000 0.000000 0.000000 -7.430921 9.215522 -8.244380 -53.992548 -12.231875 2.949230 0.000000 0.000000 0.000000 7.012201 -15.507503 12.287224 -1.768643 6.074443 -1.953082 10.953366 2.356239 3.613842 1.384661 -2.140472 -6.203899 0.000000 0.000000 0.000000 7.012201 -15.507503 12.287224 3.030884 7.201025 -0.581818 -0.974590 -2.631403 6.506338 -0.931292 -0.590818 -4.111492 0.000000 0.000000 0.000000 -3.872517 -0.303091 8.988715 -10.395667 6.046199 5.932877 0.000000 0.000000 0.000000 -2.668969 -0.403136 -11.613271 7.200189 -0.468967 0.066916 0.000000 0.000000 0.000000
0.119183 0.120310 0.082862 1.971322 -0.423035 -2.839297 0.000000 0.000000 0.000000 -7.425546 9.297188 -8.457482 -54.345270 -12.314957 2.922736 0.000000 0.000000 0.000000 6.745759 -15.507540 12.284181 -1.214762 6.000271 -2.864224 10.510228 2.433260 3.732024 1.553305 -1.887367 -6.535019 0.000000 0.000000 0.000000 6.745759 -15.507540 12.284181 2.705629 7.148928 -0.997474 -0.794497 -2.998484 7.861985 -0.995769 -1.332448 -4.258154 0.000000 0.000000 0.000000 -4.612288 -0.284338 8.821817 -10.693660 6.297495 6.240520 0.000000 0.000000 0.000000 -3.503938 -0.658893 -11.888308 8.121539 -0.032158 -0.461607 0.000000 0.000000 0.000000
0.119329 0.121286 0.084059 1.753988 -0.394514 -2.641149 0.000000 0.000000 0.000000 -7.418568 9.422279 -8.629136 -54.177680 -12.358052 2.854290 0.000000 0.000000 0.000000 7.003234 -15.507561 12.280926 -1.325095 5.660471 -4.376931 10.376945 2.852463 3.126584 1.054055 -0.915321 -6.902917 0.000000 0.000000 0.000000 7.003234 -15.507561 12.280926 2.398166 7.124963 -1.135808 -0.925581 -3.205268 8.850210 -1.028272 -2.441085 -4.292783 0.000000 0.000000 0.000000 -4.692950 -0.275428 8.716758 -11.415657 6.727809 6.153839 0.000000 0.000000 0.000000 -4.263131 -1.099207 -12.500285 9.199403 0.585963 -0.792071 0.000000 0.000000 0.000000
0.119251 0.122163 0.085661 1.206480 -0.328247 -2.204991 0.000000 0.000000 0.000000 -7.400512 9.765689 -8.999361 -53.563596 -12.564003 2.595929 0.000000 0.000000 0.000000 7.647064 -15.507613 12.271317 -1.373875 5.340590 -4.917918 9.889880 2.846602 1.177233 1.276549 0.325201 -8.144126 0.000000 0.000000 0.000000 7.647064 -15.507613 12.271317 2.238714 6.921379 -1.135833 -1.133851 -3.572259 10.068816 -0.968426 -3.337993 -4.620251 0.000000 0.000000 0.000000 -5.331546 -0.205269 8.508514 -12.195980 7.360081 5.515209 0.000000 0.000000 0.000000 -4.068007 -1.218666 -12.270162 8.681895 0.171205 -1.550512 0.000000 0.000000 0.000000
0.119145 0.123174 0.087439 0.583647 -0.233955 -1.591081 0.000000 0.000000 0.000000 -7.385199 10.019726 -9.473401 -52.546202 -12.567223 2.660535 0.000000 0.000000 0.000000 8.382271 -15.507600 12.263363 -1.278107 5.259226 -4.918429 9.324390 2.624449 -0.225491 1.395697 0.966441 -8.437319 0.000000 0.000000 0.000000 8.382271 -15.507600 12.263363 2.445859 6.739633 -0.758333 -1.503834 -3.957512 10.784617 -0.846556 -3.695744 -5.173881 0.000000 0.000000 0.000000 -7.653855 0.018533 8.261647 -10.062320 7.046596 4.495826 0.000000 0.000000 0.000000 -4.374777 -1.551422 -11.803092 8.265522 -0.273510 -2.990977 0.000000 0.000000 0.000000
0.119080 0.124265 0.089146 0.223746 -0.151899 -1.059970 0.000000 0.000000 0.000000 -7.385672 9.940162 -9.889626 -51.636228 -12.437143 2.917903 0.000000 0.000000 0.000000 8.809203 -15.507545 12.267113 -1.043884 5.499094 -4.867583 8.873405 2.437657 -0.335178 1.296375 0.957868 -8.077727 0.000000 0.000000 0.000000 8.809203 -15.507545 12.267113 2.929137 6.777756 -0.168641 -1.768656 -4.286026 10.811277 -1.016450 -3.695388 -5.542222 0.000000 0.000000 0.000000 -10.953384 0.353659 8.009340 -3.832717 5.256779 5.353474 0.000000 0.000000 0.000000 -5.572468 -2.136836 -11.768097 8.617180 0.016384 -3.455267 0.000000 0.000000 0.000000
0.118813 0.126027 0.090506 -0.190470 -0.064990 -0.531596 0.000000 0.000000 0.000000 -7.388177 9.839592 -10.220034 -50.929955 -12.100615 3.282433 0.000000 0.000000 0.000000 9.280387 -15.507529 12.267568 -0.975582 5.716927 -4.743353 8.528600 2.300019 -0.138428 1.307556 0.794892 -7.638183 0.000000 0.000000 0.000000 9.280387 -15.507529 12.267568 3.215253 6.857777 0.279360 -2.076613 -4.510376 10.873704 -1.116750 -3.746829 -5.977447 0.000000 0.000000 0.000000 -10.590591 0.366277 7.831798 -3.843417 5.388562 5.376533 0.000000 0.000000 0.000000 -6.759052 -2.761554 -12.392689 9.610375 0.781890 -3.277002 0.000000 0.000000 0.000000
0.118048 0.128762 0.091601 -0.592780 0.024787 -0.012550 0.000000 0.000000 0.000000 -7.392632 9.723169 -10.426004 -50.410504 -11.683244 3.487934 0.000000 0.000000 0.000000 9.727585 -15.507805 12.261025 -1.117065 5.878134 -4.583802 8.389400 2.219446 -0.030959 1.342630 0.675296 -7.468804 0.000000 0.000000 0.000000 9.727585 -15.507805 12.261025 3.217547 6.972565 0.516004 -2.280090 -4.710753 11.095055 -1.011392 -3.920247 -6.441708 0.000000 0.000000 0.000000 -10.237288 0.368989 7.581193 -3.916035 5.504159 5.257815 0.000000 0.000000 0.000000 -6.500124 -2.813842 -12.713704 9.604266 0.710947 -3.557084 0.000000 0.000000 0.000000
0.117071 0.132106 0.092285 -1.214215 0.122496 0.473162 0.000000 0.000000 0.000000 -7.400062 9.567281 -10.430710 -49.744526 -11.168284 3.557748 0.000000 0.000000 0.000000 10.367779 -15.508732 12.248880 -1.365358 6.067527 -4.441854 8.309103 2.141251 -0.096447 1.539538 0.646878 -7.612873 0.000000 0.000000 0.000000 10.367779 -15.508732 12.248880 3.184259 7.125327 0.731751 -2.550795 -4.797737 11.062274 -0.602356 -4.167123 -6.805700 0.000000 0.000000 0.000000 -9.659875 0.353334 7.316650 -3.847442 5.548516 5.229343 0.000000 0.000000 0.000000 -6.036209 -2.886218 -12.994574 10.033909 0.827635 -3.975791 0.000000 0.000000 0.000000
0.116367 0.135075 0.092655 -1.587155 0.191564 0.817003 0.000000 0.000000 0.000000 -7.404086 9.504033 -10.329324 -49.284520 -10.785951 3.450682 0.000000 0.000000 0.000000 10.756400 -15.510235 12.230289 -1.503382 6.175554 -4.281348 8.277480 2.022590 -0.386834 1.532695 0.666496 -7.796432 0.000000 0.000000 0.000000 10.756400 -15.510235 12.230289 3.087180 7.161025 0.817661 -2.504980 -5.022953 11.135927 -0.405184 -4.324776 -7.034296 0.000000 0.000000 0.000000 -9.323270 0.338162 7.129573 -3.922020 5.637290 5.167244 0.000000 0.000000 0.000000 -5.777974 -2.942056 -13.197246 10.354306 0.922170 -4.254360 0.000000 0.000000 0.000000
0.116026 0.137380 0.092777 -1.702228 0.219878 0.965829 0.000000 0.000000 0.000000 -7.401152 9.590076 -10.201298 -49.109100 -10.601236 3.310188 0.000000 0.000000 0.000000 10.894136 -15.511591 12.211811 -1.436715 6.139694 -4.358231 8.055745 1.923096 -0.380478 1.443400 0.674929 -7.852834 0.000000 0.000000 0.000000 10.894136 -15.511591 12.211811 3.046155 7.038828 0.771441 -2.564352 -5.225682 11.488075 -0.514760 -4.355910 -7.387774 0.000000 0.000000 0.000000 -9.231212 0.332878 7.069683 -3.823580 5.613976 5.125792 0.000000 0.000000 0.000000 -5.734157 -2.969303 -13.255112 10.582944 1.004120 -4.400407 0.000000 0.000000 0.000000
0.115763 0.139087 0.092815 -1.573409 0.217720 0.995212 0.000000 0.000000 0.000000 -7.399324 9.633991 -10.050731 -49.199474 -10.489084 3.148824 0.000000 0.000000 0.000000 10.769682 -15.512897 12.197745 -1.372567 6.077732 -4.663573 7.995887 1.915927 -0.376436 1.206585 0.733146 -7.871173 0.000000 0.000000 0.000000 10.769682 -15.512897 12.197745 3.032371 6.940615 0.663625 -2.540989 -5.488241 11.948427 -0.603062 -4.217631 -7.798257 0.000000 0.000000 0.000000 -9.362244 0.342177 7.045117 -3.768481 5.586349 5.121337 0.000000 0.000000 0.000000 -5.862279 -2.961493 -13.286664 10.721346 1.096637 -4.331111 0.000000 0.000000 0.000000
0.115531 0.140470 0.092709 -1.312181 0.201735 0.978541 0.000000 0.000000 0.000000 -7.394746 9.733293 -9.855648 -49.419573 -10.399552 2.937128 0.000000 0.000000 0.000000 10.517154 -15.514516 12.180183 -1.226186 5.972081 -5.034685 7.873274 1.877664 -0.481343 0.939884 0.844398 -7.932962 0.000000 0.000000 0.000000 10.517154 -15.514516 12.180183 3.066105 6.758966 0.559143 -2.451920 -5.809946 12.386264 -0.725643 -3.840487 -8.277929 0.000000 0.000000 0.000000 -9.630266 0.360318 7.078847 -3.747033 5.579390 5.108520 0.000000 0.000000 0.000000 -6.130312 -2.944076 -13.254514 10.946731 1.235948 -4.257029 0.000000 0.000000 0.000000
0.115304 0.141648 0.092462 -1.039482 0.184893 0.959512 0.000000 0.000000 0.000000 -7.393651 9.752357 -9.668041 -49.686473 -10.268714 2.770548 0.000000 0.000000 0.000000 10.239176 -15.516322 12.166258 -1.050609 5.938532 -5.476837 7.794599 1.859304 -0.553841 0.776650 0.909192 -7.893577 0.000000 0.000000 0.000000 10.239176 -15.516322 12.166258 3.165287 6.642355 0.473940 -2.468166 -6.050294 12.703912 -0.880311 -3.602086 -8.636436 0.000000 0.000000 0.000000 -9.906415 0.378693 7.107614 -3.679769 5.551605 5.135233 0.000000 0.000000 0.000000 -6.421392 -2.928514 -13.205082 11.338818 1.450769 -4.217454 0.000000 0.000000 0.000000
0.115062 0.142570 0.092271 -0.959149 0.175428 0.922822 0.000000 0.000000 0.000000 -7.390263 9.824995 -9.512957 -49.838849 -10.199903 2.637304 0.000000 0.000000 0.000000 10.160718 -15.517528 12.156115 -0.992513 5.855836 -5.742069 7.830057 1.868285 -0.660388 0.762678 0.945093 -7.870890 0.000000 0.000000 0.000000 10.160718 -15.517528 12.156115 3.139258 6.536614 0.485372 -2.434807 -6.250512 12.965377 -0.993654 -3.498430 -8.910425 0.000000 0.000000 0.000000 -9.992632 0.383768 7.148404 -3.662381 5.549764 5.166219 0.000000 0.000000 0.000000 -6.535061 -2.928298 -13.110965 11.606462 1.589092 -4.220135 0.000000 0.000000 0.000000
